<?xml version="1.0" standalone="no"?>

<svg version="1.0" xmlns="http://www.w3.org/2000/svg"
 width="1200.000000pt" height="1237.000000pt" viewBox="0 0 1200.000000 1237.000000"
 preserveAspectRatio="xMidYMid meet">

<g transform="translate(0.000000,1237.000000) scale(0.100000,-0.100000)"
fill="#000000" stroke="none">
<path d="M1590 12363 c-174 -27 -223 -37 -267 -59 -35 -17 -55 -33 -58 -47 -2
-12 -9 -134 -15 -272 -73 -1652 -287 -3458 -590 -4965 -129 -641 -233 -1028
-370 -1375 -41 -104 -59 -135 -170 -285 -51 -69 -100 -140 -108 -158 -16 -32
-15 -35 17 -100 44 -89 105 -173 182 -251 94 -94 168 -146 314 -217 161 -79
276 -109 398 -102 143 7 139 5 680 491 730 658 1123 1001 1512 1322 l179 148
12 -39 c114 -365 166 -481 271 -594 135 -145 275 -209 478 -218 202 -8 343 21
516 108 275 137 537 413 662 696 107 245 164 507 228 1051 l33 281 36 18 c38
19 517 242 538 251 7 3 -33 -64 -88 -148 -187 -284 -332 -612 -389 -879 -43
-201 -52 -469 -20 -560 32 -90 129 -178 241 -217 72 -25 285 -25 376 0 216 58
467 211 647 392 44 44 119 132 166 195 80 108 116 163 318 485 45 72 80 119
77 105 -3 -14 -7 -50 -11 -80 -3 -30 -22 -160 -42 -289 l-36 -235 -242 -270
c-1286 -1437 -2094 -2538 -2430 -3310 -68 -156 -158 -421 -180 -531 -35 -169
-35 -464 0 -655 126 -696 460 -1514 727 -1778 108 -107 189 -153 411 -231 106
-37 128 -41 210 -41 236 1 472 102 697 301 110 97 218 229 355 434 361 541
510 936 679 1790 139 706 247 1471 431 3075 124 1071 162 1372 177 1385 7 7
43 30 79 53 l66 40 12 -101 c41 -342 149 -662 305 -902 101 -155 182 -223 325
-275 229 -84 588 -58 836 60 423 201 815 763 929 1332 64 318 55 673 -24 908
-108 323 -312 532 -572 584 -273 56 -528 -51 -910 -379 -211 -182 -395 -355
-567 -535 -111 -115 -225 -222 -319 -298 -144 -116 -148 -119 -145 -88 1 17 7
103 13 191 13 196 34 372 61 529 27 152 19 294 -19 353 -4 7 -57 14 -142 18
-236 11 -268 26 -375 182 -90 129 -178 215 -240 237 -91 30 -64 37 -559 -143
-489 -179 -1428 -485 -1440 -470 -1 2 -13 31 -26 64 -69 178 -177 345 -292
450 -239 218 -596 283 -930 168 -267 -92 -431 -250 -758 -728 -173 -253 -249
-350 -400 -508 -133 -139 -169 -194 -170 -254 0 -37 66 -130 205 -288 48 -55
94 -107 101 -116 13 -14 -7 -34 -178 -176 -465 -385 -963 -765 -1504 -1146
-83 -59 -154 -107 -158 -107 -9 0 -7 191 4 325 40 472 217 1531 455 2720 304
1523 479 2247 703 2920 57 170 57 170 57 295 0 119 -1 128 -31 191 -17 36 -48
83 -69 104 -68 68 -258 140 -429 164 -72 10 -389 13 -446 4z m3238 -3872 c50
-26 77 -56 105 -121 32 -73 60 -160 54 -166 -11 -11 -171 -67 -325 -114 -173
-53 -562 -153 -568 -147 -14 14 218 281 324 374 87 75 212 166 255 183 39 15
116 11 155 -9z m2413 -529 c-38 -225 -134 -465 -288 -723 -190 -319 -383 -521
-557 -581 -76 -26 -109 -23 -150 12 -80 71 -87 203 -21 371 65 166 180 391
266 519 61 93 113 156 203 245 140 140 223 199 419 301 l142 73 3 -50 c2 -27
-6 -103 -17 -167z m2708 -1 c79 -41 153 -165 204 -341 122 -421 -13 -921 -338
-1246 -82 -83 -141 -120 -244 -155 -73 -25 -107 -24 -169 7 -155 77 -230 277
-283 754 -23 209 4 467 62 581 21 42 137 139 237 198 37 22 141 81 232 130
184 100 224 110 299 72z m-4887 -510 c-14 -171 -32 -274 -82 -479 -89 -359
-181 -551 -344 -720 -87 -91 -144 -127 -230 -149 -56 -13 -76 -14 -118 -4 -97
22 -138 71 -176 211 -51 184 -64 361 -51 680 6 129 13 266 17 304 l7 69 100
34 c100 34 480 148 735 221 l135 38 9 -34 c5 -21 4 -89 -2 -171z m2193 -1422
c-176 -2001 -449 -3639 -766 -4609 -198 -604 -413 -910 -596 -849 -82 27 -198
168 -267 325 -165 379 -286 1112 -290 1764 -1 206 9 301 49 476 122 523 385
989 1365 2414 172 250 360 526 418 613 58 86 107 156 108 154 2 -2 -8 -131
-21 -288z"/>
</g>
</svg>
